<?xml version="1.0"?>
<svg xmlns="http://www.w3.org/2000/svg" xmlns:xlink="http://www.w3.org/1999/xlink" version="1.1" id="Capa_1" x="0px" y="0px" viewBox="0 0 512.001 512.001" style="enable-background:new 0 0 512.001 512.001;" xml:space="preserve" width="512px" height="512px" class=""><g><g>
	<g>
		<path d="M510.118,245.455c-2.332-3.24-6.37-4.784-10.266-3.926l-64.851,14.265l-24.891-54.409    c-1.145-2.503-3.271-4.423-5.877-5.309c-2.603-0.885-5.461-0.657-7.894,0.63l-61.606,32.597l-71.158-82.573    c-0.046-0.054-0.098-0.1-0.145-0.151c-0.117-0.131-0.239-0.258-0.365-0.383c-0.127-0.128-0.256-0.251-0.388-0.37    c-0.052-0.047-0.097-0.098-0.149-0.143c-0.059-0.052-0.125-0.094-0.185-0.145c-0.151-0.125-0.306-0.245-0.463-0.36    c-0.115-0.084-0.232-0.164-0.35-0.243c-0.155-0.102-0.311-0.201-0.471-0.295c-0.133-0.078-0.267-0.152-0.402-0.224    c-0.147-0.078-0.296-0.151-0.445-0.222c-0.154-0.071-0.309-0.139-0.465-0.201c-0.138-0.056-0.276-0.108-0.416-0.157    c-0.171-0.061-0.342-0.116-0.515-0.167c-0.133-0.039-0.266-0.074-0.399-0.107c-0.18-0.045-0.36-0.085-0.541-0.119    c-0.135-0.025-0.269-0.048-0.404-0.067c-0.18-0.027-0.359-0.05-0.54-0.066c-0.142-0.014-0.284-0.022-0.426-0.029    c-0.173-0.009-0.346-0.015-0.519-0.014c-0.153,0-0.305,0.005-0.457,0.012c-0.163,0.008-0.325,0.018-0.487,0.034    c-0.161,0.015-0.321,0.035-0.482,0.059c-0.154,0.023-0.308,0.047-0.462,0.077c-0.163,0.031-0.324,0.067-0.486,0.107    c-0.151,0.037-0.302,0.077-0.452,0.121c-0.157,0.047-0.313,0.098-0.468,0.152c-0.154,0.054-0.307,0.11-0.459,0.173    c-0.144,0.058-0.286,0.12-0.427,0.186c-0.162,0.074-0.32,0.153-0.478,0.236c-0.126,0.067-0.252,0.137-0.376,0.21    c-0.167,0.098-0.33,0.2-0.492,0.309c-0.112,0.074-0.223,0.151-0.333,0.231c-0.161,0.117-0.318,0.24-0.474,0.368    c-0.059,0.05-0.123,0.091-0.182,0.142c-0.052,0.045-0.096,0.095-0.147,0.141c-0.134,0.12-0.264,0.245-0.392,0.373    c-0.125,0.125-0.247,0.251-0.363,0.381c-0.047,0.053-0.099,0.099-0.145,0.152l-71.159,82.573l-61.606-32.597    c-2.433-1.287-5.288-1.516-7.894-0.63c-2.605,0.886-4.731,2.806-5.876,5.309l-24.892,54.409l-64.849-14.266    c-3.898-0.857-7.934,0.686-10.266,3.926c-2.331,3.24-2.513,7.557-0.461,10.98l35.489,59.225    c-8.738,7.245-12.985,19.168-9.868,30.833c3.499,13.096,15.402,22.241,28.945,22.241c2.608,0,5.215-0.344,7.757-1.022    c31.411-8.416,63.466-14.808,95.277-18.995c63.413-8.35,130.542-8.351,193.957,0c31.809,4.188,63.864,10.578,95.283,18.997    c2.536,0.678,5.144,1.02,7.751,1.02c13.544-0.001,25.446-9.146,28.945-22.241c3.117-11.666-1.131-23.59-9.867-30.834    l35.487-59.224C512.631,253.011,512.449,248.695,510.118,245.455z M465.637,341.331c-1.165,4.358-5.122,7.403-9.624,7.403    c-0.864,0-1.734-0.115-2.58-0.341c-32.253-8.642-65.172-15.204-97.843-19.505c-32.569-4.288-66.076-6.463-99.589-6.463    c-33.514,0-67.021,2.175-99.589,6.463c-32.673,4.301-65.592,10.863-97.836,19.503c-0.852,0.228-1.722,0.343-2.587,0.343    c-4.501,0-8.458-3.044-9.623-7.403c-1.42-5.313,1.747-10.79,7.065-12.212c0.023-0.007,0.046-0.012,0.069-0.019    c32.654-8.746,66.421-15.446,100.367-19.915c34.064-4.485,68.428-6.76,102.135-6.76c33.706,0,68.069,2.274,102.135,6.76    c33.943,4.469,67.709,11.169,100.367,19.916c0.023,0.006,0.046,0.012,0.069,0.018l0.003,0.001    C463.889,330.54,467.057,336.017,465.637,341.331z M237.001,263.425c0-10.477,8.523-19,19-19c10.477,0,19,8.523,19,19    c0,10.477-8.523,19-19,19C245.525,282.425,237.001,273.902,237.001,263.425z M456.424,307.903    c-23.018-5.929-46.523-10.888-70.232-14.778l1.743-6.505c1.43-5.334-1.736-10.817-7.071-12.247    c-5.338-1.429-10.817,1.737-12.247,7.071l-2.328,8.688c-1.848-0.256-3.694-0.532-5.543-0.775    c-23.671-3.117-47.481-5.167-71.137-6.181c3.421-5.797,5.392-12.547,5.392-19.751c0-21.505-17.495-39-39-39s-39,17.495-39,39    c0,7.204,1.971,13.954,5.391,19.751c-23.655,1.014-47.466,3.064-71.137,6.181c-1.849,0.243-3.695,0.52-5.544,0.775l-2.328-8.688    c-1.429-5.335-6.912-8.503-12.247-7.071c-5.335,1.43-8.5,6.913-7.071,12.247l1.743,6.505c-23.71,3.891-47.215,8.851-70.23,14.778    l-25.083-41.86l50.091,11.019c4.6,1.013,9.282-1.324,11.242-5.607l23.843-52.117l59.29,31.371    c4.124,2.183,9.206,1.224,12.252-2.311l68.788-79.822l68.788,79.822c3.046,3.534,8.13,4.492,12.252,2.311l59.29-31.371    l23.842,52.117c1.959,4.284,6.645,6.617,11.242,5.607l50.092-11.019L456.424,307.903z" data-original="#000000" class="active-path" data-old_color="#000000" fill="#193421"/>
	</g>
</g><g>
	<g>
		<path d="M135.949,253.701l-0.068-0.26c-1.425-5.336-6.907-8.508-12.241-7.083c-5.336,1.425-8.507,6.905-7.083,12.241l0.069,0.26    c1.194,4.472,5.236,7.423,9.655,7.423c0.854,0,1.722-0.109,2.585-0.34C134.202,264.517,137.373,259.037,135.949,253.701z" data-original="#000000" class="active-path" data-old_color="#000000" fill="#193421"/>
	</g>
</g><g>
	<g>
		<path d="M388.362,246.358c-5.339-1.422-10.816,1.748-12.241,7.083l-0.069,0.26c-1.424,5.336,1.747,10.816,7.083,12.241    c0.864,0.23,1.731,0.34,2.585,0.34c4.419,0,8.462-2.951,9.656-7.423l0.069-0.26C396.868,253.263,393.698,247.783,388.362,246.358z    " data-original="#000000" class="active-path" data-old_color="#000000" fill="#193421"/>
	</g>
</g></g> </svg>
